                <svg version="1.0" xmlns="http://www.w3.org/2000/svg" width="30" height="30"
                    viewBox="0 0 500.000000 500.000000" preserveAspectRatio="xMidYMid meet">

                    <g transform="translate(0.000000,500.000000) scale(0.100000,-0.100000)" fill="#000000"
                        stroke="none">
                        <path d="M3508 4167 c-57 -22 -111 -70 -144 -129 -25 -46 -29 -63 -29 -133 0
-70 4 -87 30 -134 113 -204 413 -181 496 38 48 128 -13 284 -136 349 -41 21
-170 26 -217 9z" />
                        <path d="M1812 3419 c-268 -34 -525 -225 -655 -484 -219 -438 -88 -990 298
-1255 175 -121 421 -173 639 -135 176 30 260 69 352 162 30 31 56 54 58 52 1
-2 13 -43 26 -91 l23 -88 213 0 214 0 0 900 0 900 -214 0 -213 0 -23 -85 c-13
-47 -26 -85 -29 -85 -4 0 -23 16 -42 36 -132 139 -388 207 -647 173z m340
-453 c162 -39 269 -147 313 -316 24 -92 16 -300 -14 -385 -29 -81 -83 -150
-159 -201 -77 -54 -142 -74 -254 -81 -107 -7 -162 6 -248 57 -109 65 -184 151
-223 258 -29 80 -35 239 -12 318 48 166 164 292 320 346 61 21 196 23 277 4z" />
                        <path d="M3350 2480 l0 -900 250 0 250 0 0 900 0 900 -250 0 -250 0 0 -900z" />
                    </g>
                </svg>